<svg xmlns="http://www.w3.org/2000/svg" width="21.87" height="17.717" viewBox="0 0 21.87 17.717"><path d="M19.223,11.569l2.585-7.739a.751.751,0,0,0-.073-.743,1.165,1.165,0,0,0-.926-.381L6.2,2.7,5.807.853A1.028,1.028,0,0,0,4.764,0H.657C.232,0,0,.2,0,.6V1.665c0,.385.231.485.672.485H4.139L6.793,13.416a2.568,2.568,0,0,0,1.772,4.272,2.707,2.707,0,0,0,2.4-1.919h5.168a2.531,2.531,0,0,0,2.4,1.948,2.485,2.485,0,0,0,2.421-2.491,2.326,2.326,0,0,0-2.408-2.5,2.353,2.353,0,0,0-1.823.9h-6.35a2.012,2.012,0,0,0-1.727-.964l-.088-.469h9.662C18.951,12.186,19.094,11.92,19.223,11.569Zm-.67,2.717a.91.91,0,1,1-.911.91A.911.911,0,0,1,18.553,14.286Zm-9.088.91a.921.921,0,1,1-.92-.922A.922.922,0,0,1,9.465,15.2Z"/></svg>