<svg xmlns="http://www.w3.org/2000/svg" width="26.808" height="21.717" viewBox="0 0 26.808 21.717"><defs><style>.a{fill:#fff;}</style></defs><path class="a" d="M23.563,14.181,26.732,4.7a.92.92,0,0,0-.09-.911,1.428,1.428,0,0,0-1.135-.467L7.6,3.313,7.119,1.046A1.26,1.26,0,0,0,5.839,0H.806C.284,0,0,.244,0,.732V2.041c0,.472.283.595.824.595h4.25L8.327,16.445A3.147,3.147,0,0,0,10.5,21.682a3.318,3.318,0,0,0,2.943-2.352h6.335a3.1,3.1,0,0,0,2.943,2.387,3.046,3.046,0,0,0,2.968-3.053A2.851,2.851,0,0,0,22.736,15.6a2.885,2.885,0,0,0-2.234,1.1H12.718A2.466,2.466,0,0,0,10.6,15.512l-.108-.575H22.336C23.229,14.937,23.4,14.612,23.563,14.181Zm-.822,3.331a1.116,1.116,0,1,1-1.117,1.116A1.116,1.116,0,0,1,22.741,17.512ZM11.6,18.628a1.129,1.129,0,1,1-1.127-1.13A1.13,1.13,0,0,1,11.6,18.628Z"/></svg>