<svg xmlns="http://www.w3.org/2000/svg" width="23.559" height="19.085" viewBox="0 0 23.559 19.085"><defs><style>.a{fill:#fff;opacity:0.9;}</style></defs><path class="a" d="M20.707,12.462l2.785-8.336a.809.809,0,0,0-.079-.8,1.255,1.255,0,0,0-1-.411l-15.74,0L6.256.919A1.108,1.108,0,0,0,5.132,0H.708C.249,0,0,.215,0,.643V1.794c0,.415.249.523.724.523H4.459L7.318,14.452a2.766,2.766,0,0,0,1.909,4.6,2.916,2.916,0,0,0,2.587-2.067H17.38a2.726,2.726,0,0,0,2.586,2.1A2.677,2.677,0,0,0,22.575,16.4a2.506,2.506,0,0,0-2.594-2.7,2.535,2.535,0,0,0-1.964.965h-6.84a2.167,2.167,0,0,0-1.86-1.039l-.095-.506H19.63C20.414,13.127,20.568,12.841,20.707,12.462Zm-.722,2.927A.981.981,0,1,1,19,16.37.981.981,0,0,1,19.986,15.39ZM10.2,16.37a.992.992,0,1,1-.991-.993A.993.993,0,0,1,10.2,16.37Z"/></svg>