<svg xmlns="http://www.w3.org/2000/svg" width="16.435" height="16.435" viewBox="0 0 16.435 16.435"><path d="M138.754,138.411l3.766-3.766a.672.672,0,0,0,0-.963l-3.766-3.766a.608.608,0,0,0-.738-.15.64.64,0,0,0-.428.631v1.712a11.762,11.762,0,0,0-2.311.209,7.415,7.415,0,0,0-1.739.546,4.537,4.537,0,0,0-1.22.845,4.921,4.921,0,0,0-.819,1.022,4.782,4.782,0,0,0-.476,1.166,7.405,7.405,0,0,0-.23,1.193q-.054.54-.053,1.182a7.482,7.482,0,0,0,1.787,4.323.334.334,0,0,0,.268.128.352.352,0,0,0,.342-.385q-.471-3.788.663-5.061a2.813,2.813,0,0,1,1.391-.808,9.2,9.2,0,0,1,2.4-.251v1.712a.64.64,0,0,0,.428.631.662.662,0,0,0,.738-.15Zm5.682-7.33v10.272a3.087,3.087,0,0,1-3.082,3.082H131.082A3.087,3.087,0,0,1,128,141.354V131.082A3.087,3.087,0,0,1,131.082,128h10.272a3.087,3.087,0,0,1,3.082,3.082Z" transform="translate(-128 -128)"/></svg>