<svg xmlns="http://www.w3.org/2000/svg" width="20.199" height="19.36" viewBox="0 0 20.199 19.36"><defs><style>.a{fill:#23979f;}</style></defs><g transform="translate(-17.75 -968.945)"><path class="a" d="M26.83,966.945a2.841,2.841,0,0,0-2.693,2.278l-.463,3.416h-2.23a1.352,1.352,0,0,0-1.347,1.139L18.75,985.166A1.352,1.352,0,0,0,20.1,986.3H37.6a1.352,1.352,0,0,0,1.347-1.139L37.6,973.778a1.352,1.352,0,0,0-1.347-1.139h-2.23l-.463-3.416a2.841,2.841,0,0,0-2.693-2.277Zm0,1.139h4.04a1.421,1.421,0,0,1,1.347,1.139l.463,3.416H25.02l.463-3.416a1.42,1.42,0,0,1,1.347-1.139Z" transform="translate(-1 2)"/></g></svg>